<svg xmlns="http://www.w3.org/2000/svg" viewBox="0 0 32 32">
  <defs>
    <linearGradient id="g" x1="0" y1="0" x2="1" y2="1">
      <stop offset="0%" stop-color="#22d3ee"/>
      <stop offset="100%" stop-color="#8b5cf6"/>
    </linearGradient>
  </defs>
  <rect width="32" height="32" rx="8" fill="#0a0a1a"/>
  <rect x="2" y="2" width="28" height="28" rx="6" fill="url(#g)"/>
  <path d="M16 7c-3.3 0-6 2.7-6 6 0 1.7.7 3.2 1.8 4.3.3.3.5.7.6 1.1l.6 2.6h6l.6-2.6c.1-.4.3-.8.6-1.1C21.3 16.2 22 14.7 22 13c0-3.3-2.7-6-6-6z" fill="#0a0a1a" opacity="0.9"/>
  <path d="M13 23h6v1c0 1.1-.9 2-2 2h-2c-1.1 0-2-.9-2-2v-1z" fill="#0a0a1a" opacity="0.9"/>
  <circle cx="14" cy="13" r="1" fill="#22d3ee"/>
  <circle cx="18" cy="13" r="1" fill="#a78bfa"/>
  <path d="M14 13h4" stroke="#67e8f9" stroke-width="0.5" opacity="0.6"/>
  <path d="M13.5 15c0 0 1 1.5 2.5 1.5s2.5-1.5 2.5-1.5" stroke="#67e8f9" stroke-width="0.7" fill="none" opacity="0.5"/>
</svg>
